<svg xmlns="http://www.w3.org/2000/svg" xmlns:xlink="http://www.w3.org/1999/xlink" width="1080" zoomAndPan="magnify" viewBox="0 0 810 809.999993" height="1080" preserveAspectRatio="xMidYMid meet" version="1.0"><path fill="#000000" d="M 386.753906 85.867188 C 385.628906 86.691406 382.941406 97.003906 360.363281 187.082031 C 355.601562 206.082031 351.367188 221.960938 350.957031 222.371094 C 350.542969 222.777344 333.652344 230.800781 313.421875 240.195312 C 293.191406 249.589844 276.097656 257.792969 275.4375 258.417969 C 273.792969 259.988281 273.90625 262.855469 275.671875 264.285156 C 277.027344 265.386719 280.09375 265.445312 335.5625 265.445312 L 394.019531 265.445312 L 394.019531 176.527344 C 394.019531 88.464844 394.007812 87.597656 392.742188 86.332031 C 391.289062 84.878906 388.410156 84.65625 386.753906 85.867188 M 416.828125 146.351562 C 415.859375 147.425781 415.769531 152.519531 415.769531 206.484375 L 415.769531 265.445312 L 503.6875 265.445312 C 559.546875 265.445312 592.203125 265.214844 593.25 264.816406 C 596.414062 263.613281 597.050781 258.632812 594.234375 257.125 C 592.96875 256.445312 585.25 254.472656 501.84375 233.484375 C 477.9375 227.46875 458.332031 222.484375 458.273438 222.40625 C 458.21875 222.328125 453.621094 212.476562 448.066406 200.515625 C 425.738281 152.460938 423.34375 147.410156 422.355469 146.316406 C 421.023438 144.847656 418.175781 144.863281 416.828125 146.351562 M 424.085938 213.039062 L 424.085938 256.796875 L 438.121094 242.773438 C 448.914062 231.992188 452.03125 228.519531 451.621094 227.746094 C 451.328125 227.195312 445.132812 213.933594 437.851562 198.277344 C 430.570312 182.621094 424.496094 169.691406 424.351562 169.542969 C 424.203125 169.398438 424.085938 188.96875 424.085938 213.039062 M 316.742188 175.886719 C 315.226562 176.574219 312.3125 178.8125 310.265625 180.859375 C 304.144531 186.980469 302.441406 191.699219 304.207031 197.644531 C 305.046875 200.472656 306.078125 201.945312 309.808594 205.636719 C 321.515625 217.21875 337.859375 218.496094 342.832031 208.21875 C 344.03125 205.746094 344.21875 204.445312 344.03125 199.984375 C 343.835938 195.390625 343.484375 194.035156 341.371094 189.761719 C 338.46875 183.894531 333.074219 177.824219 329.09375 175.957031 C 325.441406 174.238281 320.4375 174.210938 316.742188 175.886719 M 481.339844 176.078125 C 477.5625 177.878906 471.894531 183.769531 469.269531 188.617188 C 464.835938 196.816406 464.515625 205.066406 468.417969 210.664062 C 470.207031 213.230469 475.449219 215.535156 479.511719 215.542969 C 491.730469 215.566406 506.539062 203.820312 506.59375 194.0625 C 506.621094 188.347656 499.886719 179.300781 493.234375 176.121094 C 489.472656 174.320312 485.046875 174.304688 481.339844 176.078125 M 327.988281 242.582031 C 311.902344 250.054688 298.730469 256.382812 298.722656 256.648438 C 298.714844 256.914062 318.136719 257.128906 341.886719 257.128906 C 365.636719 257.128906 385.066406 256.910156 385.066406 256.644531 C 385.066406 256.117188 358.070312 228.980469 357.554688 228.988281 C 357.378906 228.988281 344.078125 235.105469 327.988281 242.582031 M 216.390625 287.199219 C 214.808594 287.835938 213.628906 289.699219 213.628906 291.558594 C 213.628906 294.925781 212.71875 294.65625 282.394531 312.125 C 318.984375 321.296875 349.515625 329.050781 350.238281 329.359375 C 351.183594 329.753906 355.515625 338.40625 365.527344 359.886719 C 388.574219 409.328125 386.992188 406.152344 388.800781 406.605469 C 389.746094 406.84375 391.09375 406.628906 392.058594 406.089844 L 393.703125 405.167969 L 393.863281 345.859375 L 394.027344 286.554688 L 305.90625 286.59375 C 256.75 286.617188 217.167969 286.882812 216.390625 287.199219 M 415.769531 375.316406 C 415.769531 473.707031 415.46875 466.945312 419.84375 466.945312 C 424.160156 466.945312 421.59375 475.855469 450.699219 359.796875 C 454.757812 343.613281 458.417969 330.039062 458.832031 329.628906 C 459.25 329.222656 476.140625 321.210938 496.371094 311.824219 C 516.601562 302.4375 533.691406 294.234375 534.351562 293.597656 C 535.835938 292.160156 535.90625 289.351562 534.492188 287.9375 C 533.519531 286.964844 528.429688 286.859375 474.597656 286.703125 L 415.769531 286.535156 Z M 424.726562 295.351562 C 424.726562 295.621094 430.898438 302.007812 438.441406 309.542969 L 452.15625 323.246094 L 469.304688 315.234375 C 478.738281 310.824219 491.972656 304.664062 498.71875 301.539062 C 505.460938 298.414062 510.863281 295.671875 510.722656 295.445312 C 510.359375 294.855469 424.726562 294.761719 424.726562 295.351562 M 371.53125 309.417969 L 357.675781 323.335938 L 385.386719 382.75 L 385.554688 360.878906 C 385.648438 348.851562 385.648438 329.21875 385.554688 317.253906 L 385.386719 295.496094 Z M 324.691406 337.125 C 316.871094 339.078125 307.792969 345.917969 304.742188 352.152344 C 301.6875 358.398438 303.257812 364.078125 309.875 370.710938 C 318.589844 379.449219 326.535156 379.605469 334.628906 371.203125 C 348.636719 356.667969 346.707031 337.574219 331.148438 336.71875 C 328.960938 336.601562 326.054688 336.78125 324.691406 337.121094 M 472.171875 338.429688 C 464.410156 342.359375 463.242188 353.363281 469.398438 364.519531 C 470.296875 366.144531 472.9375 369.394531 475.265625 371.738281 C 481.917969 378.4375 487.5 379.445312 494.679688 375.238281 C 498.140625 373.210938 503.191406 367.722656 504.769531 364.277344 C 506.367188 360.777344 506.3125 355.484375 504.644531 352.03125 C 502.761719 348.144531 496.578125 342.695312 490.8125 339.84375 C 486.453125 337.6875 485.257812 337.386719 480.414062 337.21875 C 475.804688 337.054688 474.503906 337.246094 472.171875 338.429688 M 146.460938 519.71875 C 146.460938 522.066406 146.742188 523.878906 147.101562 523.878906 C 147.453125 523.878906 147.742188 523.296875 147.742188 522.589844 C 147.742188 521.878906 148.714844 520.234375 149.910156 518.9375 C 151.953125 516.707031 152.335938 516.558594 156.625 516.3125 L 161.175781 516.058594 L 161.175781 574.414062 L 159.257812 574.414062 C 158.199219 574.414062 157.335938 574.699219 157.335938 575.054688 C 157.335938 575.445312 160.324219 575.691406 165.011719 575.691406 C 169.703125 575.691406 172.691406 575.445312 172.691406 575.054688 C 172.691406 574.699219 171.824219 574.414062 170.769531 574.414062 L 168.851562 574.414062 L 168.851562 516.203125 L 172.402344 516.203125 C 177.8125 516.203125 180.382812 517.867188 182.011719 522.433594 L 182.867188 524.835938 L 182.894531 520.199219 L 182.925781 515.5625 L 146.460938 515.5625 Z M 193.800781 516.125 L 196.039062 516.523438 L 196.039062 574.09375 L 193.945312 574.296875 C 192.796875 574.40625 192.023438 574.765625 192.226562 575.09375 C 192.726562 575.90625 207.050781 575.867188 207.550781 575.054688 C 207.789062 574.671875 207.027344 574.414062 205.671875 574.414062 L 203.394531 574.414062 L 203.394531 546.265625 L 216.1875 546.265625 L 216.1875 574.414062 L 213.910156 574.414062 C 212.558594 574.414062 211.796875 574.671875 212.03125 575.054688 C 212.257812 575.421875 215.660156 575.691406 220.0625 575.691406 C 224.730469 575.691406 227.703125 575.445312 227.703125 575.054688 C 227.703125 574.699219 226.839844 574.414062 225.785156 574.414062 L 223.863281 574.414062 L 223.863281 516.28125 L 225.945312 516.023438 C 227.085938 515.882812 224.425781 515.753906 220.027344 515.738281 C 215.628906 515.726562 212.894531 515.898438 213.949219 516.125 L 215.867188 516.53125 L 216.039062 530.761719 L 216.210938 544.988281 L 203.371094 544.988281 L 203.542969 530.753906 L 203.714844 516.523438 L 205.953125 516.125 C 207.183594 515.910156 204.449219 515.730469 199.875 515.730469 C 195.300781 515.730469 192.566406 515.910156 193.800781 516.125 M 237.777344 516.023438 L 239.855469 516.28125 L 239.855469 574.414062 L 237.9375 574.414062 C 236.882812 574.414062 236.019531 574.699219 236.019531 575.054688 C 236.019531 575.445312 238.992188 575.691406 243.65625 575.691406 C 248.058594 575.691406 251.464844 575.421875 251.691406 575.054688 C 251.925781 574.671875 251.164062 574.414062 249.808594 574.414062 L 247.53125 574.414062 L 247.53125 516.277344 L 249.933594 516.027344 C 251.25 515.890625 248.589844 515.773438 244.015625 515.773438 C 239.441406 515.769531 236.632812 515.882812 237.777344 516.023438 M 267.160156 516.210938 C 262.25 517.6875 258.40625 523.101562 258.40625 528.550781 C 258.40625 534.492188 261.21875 539.554688 269.746094 548.976562 C 276.628906 556.582031 277.84375 559.132812 277.457031 565.167969 C 277.128906 570.28125 275.988281 572.730469 273.378906 573.917969 C 269.402344 575.730469 266.453125 572.074219 265.738281 564.441406 L 265.292969 559.699219 L 258.25 559.699219 L 258.539062 563.179688 C 259.492188 574.699219 273.472656 579.316406 281.570312 570.785156 C 283.425781 568.832031 285.273438 564.363281 285.273438 561.84375 C 285.273438 559.378906 283.023438 553.660156 280.753906 550.363281 C 279.601562 548.691406 276.546875 545.023438 273.964844 542.21875 C 271.304688 539.332031 268.410156 535.378906 267.289062 533.101562 C 265.554688 529.574219 265.363281 528.667969 265.730469 525.679688 C 266.597656 518.625 269.699219 515.019531 273.433594 516.722656 C 276.070312 517.921875 277.152344 520.371094 277.46875 525.851562 L 277.761719 530.914062 L 285.273438 530.914062 L 285.199219 525.636719 C 285.160156 522.734375 284.996094 520.863281 284.832031 521.480469 C 284.59375 522.402344 284.046875 522.113281 281.78125 519.847656 C 277.914062 515.980469 272.457031 514.625 267.160156 516.210938 M 316.621094 516.125 L 318.859375 516.523438 L 319.023438 545.46875 L 319.191406 574.414062 L 316.816406 574.414062 C 315.203125 574.414062 314.652344 574.621094 315.097656 575.066406 C 315.511719 575.480469 320.753906 575.65625 329.457031 575.546875 L 343.167969 575.371094 L 343.355469 570.359375 C 343.480469 567 343.320312 565.484375 342.875 565.761719 C 342.507812 565.988281 342.207031 566.757812 342.207031 567.476562 C 342.207031 569.375 340.378906 572.164062 338.34375 573.367188 C 337.121094 574.089844 335.0625 574.414062 331.714844 574.414062 L 326.855469 574.414062 L 326.855469 544.402344 L 330.730469 544.648438 C 334.648438 544.898438 336.449219 545.722656 336.449219 547.265625 C 336.449219 547.730469 336.738281 548.289062 337.089844 548.507812 C 337.492188 548.757812 337.726562 547.183594 337.722656 544.226562 L 337.714844 539.550781 L 336.074219 541.628906 C 334.558594 543.554688 334.160156 543.707031 330.644531 543.707031 L 326.855469 543.707031 L 326.855469 516.058594 L 331.40625 516.3125 C 335.695312 516.558594 336.078125 516.707031 338.121094 518.9375 C 339.3125 520.234375 340.289062 521.878906 340.289062 522.589844 C 340.289062 523.296875 340.574219 523.878906 340.925781 523.878906 C 341.289062 523.878906 341.566406 522.066406 341.566406 519.71875 L 341.566406 515.5625 L 327.972656 515.648438 C 320.496094 515.691406 315.386719 515.910156 316.621094 516.125 M 353.65625 516.125 C 355.792969 516.515625 355.945312 516.773438 363.089844 532.113281 C 367.085938 540.683594 370.347656 548.027344 370.339844 548.421875 C 370.332031 548.820312 367.09375 554.757812 363.140625 561.621094 C 356.308594 573.488281 355.859375 574.101562 353.882812 574.292969 C 350.011719 574.667969 351.773438 575.691406 356.28125 575.691406 C 360.660156 575.691406 362.554688 574.691406 358.921875 574.292969 L 357.089844 574.09375 L 363.878906 562.121094 C 367.617188 555.535156 370.847656 550.136719 371.058594 550.125 C 371.363281 550.109375 381.050781 570.28125 382.335938 573.613281 C 382.535156 574.128906 382.042969 574.414062 380.9375 574.414062 C 379.964844 574.414062 379.402344 574.6875 379.628906 575.054688 C 380.132812 575.867188 394.453125 575.90625 394.957031 575.09375 C 395.160156 574.765625 394.402344 574.40625 393.269531 574.296875 C 391.253906 574.097656 391.082031 573.808594 384.003906 558.742188 C 380.035156 550.296875 376.785156 542.957031 376.78125 542.429688 C 376.777344 541.902344 380.011719 535.855469 383.976562 528.996094 C 390.824219 517.136719 391.289062 516.5 393.398438 516.125 C 394.863281 515.867188 393.984375 515.734375 390.824219 515.742188 C 388.183594 515.75 386.832031 515.875 387.820312 516.023438 C 388.832031 516.175781 389.53125 516.640625 389.421875 517.082031 C 388.96875 518.882812 376.382812 540.460938 375.875 540.308594 C 375.375 540.15625 365.726562 520.039062 364.886719 517.394531 C 364.625 516.566406 364.980469 516.226562 366.324219 516.023438 C 367.308594 515.875 364.371094 515.75 359.796875 515.742188 C 355.222656 515.734375 352.460938 515.910156 353.65625 516.125 M 409.375 516.582031 C 406.480469 517.835938 403.8125 520.386719 402.277344 523.371094 C 401.15625 525.554688 401.058594 527.296875 401.070312 545.121094 C 401.085938 562.640625 401.199219 564.742188 402.273438 567.058594 C 404.636719 572.140625 409.082031 575.054688 414.492188 575.054688 C 421.609375 575.054688 427.925781 568.882812 427.925781 561.929688 L 427.925781 559.636719 L 420.566406 560.019531 L 420.160156 565.050781 C 419.710938 570.558594 418.464844 573.015625 415.59375 574.039062 C 414.363281 574.480469 413.523438 574.347656 412.25 573.511719 C 408.890625 571.3125 408.734375 570.035156 408.734375 545.167969 C 408.734375 519.972656 408.875 518.988281 412.730469 516.855469 C 414.308594 515.984375 414.675781 515.984375 416.25 516.863281 C 418.742188 518.257812 419.839844 520.929688 420.136719 526.304688 L 420.390625 530.972656 L 424.316406 530.785156 L 428.246094 530.59375 L 428.4375 526.179688 C 428.542969 523.683594 428.335938 521.472656 427.957031 521.09375 C 427.488281 520.625 427.285156 520.746094 427.285156 521.496094 C 427.285156 522.230469 426.40625 521.6875 424.472656 519.75 C 420.386719 515.667969 414.394531 514.410156 409.375 516.582031 M 436.402344 516.027344 L 438.800781 516.28125 L 438.800781 574.414062 L 436.878906 574.414062 C 435.824219 574.414062 434.960938 574.707031 434.960938 575.066406 C 434.960938 575.492188 439.734375 575.660156 448.875 575.546875 L 462.789062 575.371094 L 462.894531 570.253906 C 462.996094 565.558594 462.941406 565.320312 462.25 567.375 C 460.3125 573.132812 458.320312 574.414062 451.304688 574.414062 L 446.476562 574.414062 L 446.476562 544.621094 L 447.914062 544.472656 C 448.707031 544.394531 450.59375 544.496094 452.109375 544.703125 C 454.320312 545.003906 455.109375 545.480469 456.105469 547.113281 L 457.347656 549.144531 L 457.347656 544.367188 C 457.351562 539.679688 457.328125 539.617188 456.269531 541.167969 C 454.679688 543.488281 454.195312 543.6875 450.152344 543.699219 L 446.476562 543.707031 L 446.476562 516.203125 L 449.953125 516.203125 C 451.863281 516.203125 454.179688 516.488281 455.09375 516.835938 C 457.421875 517.71875 459.910156 520.578125 459.910156 522.371094 C 459.910156 523.199219 460.195312 523.878906 460.550781 523.878906 C 460.910156 523.878906 461.1875 522.066406 461.1875 519.71875 L 461.1875 515.5625 L 447.59375 515.667969 C 440.121094 515.730469 435.082031 515.890625 436.402344 516.027344 M 472.863281 516.027344 L 475.261719 516.277344 L 475.261719 574.414062 L 472.894531 574.414062 C 471.285156 574.414062 470.738281 574.621094 471.179688 575.066406 C 471.59375 575.480469 476.839844 575.65625 485.542969 575.546875 L 499.25 575.371094 L 499.4375 570.359375 C 499.5625 567 499.40625 565.484375 498.957031 565.761719 C 498.589844 565.988281 498.289062 566.757812 498.289062 567.476562 C 498.289062 569.554688 496.28125 572.390625 494.0625 573.445312 C 492.832031 574.027344 490.210938 574.414062 487.480469 574.414062 L 482.9375 574.414062 L 482.9375 516.28125 L 485.015625 516.023438 C 486.160156 515.882812 483.355469 515.769531 478.78125 515.773438 C 474.207031 515.773438 471.542969 515.890625 472.863281 516.027344 M 509.675781 516.125 L 511.789062 516.523438 L 511.804688 574.09375 L 509.84375 574.292969 C 508.765625 574.402344 507.886719 574.765625 507.886719 575.09375 C 507.886719 575.449219 513.636719 575.691406 521.957031 575.691406 L 536.03125 575.691406 L 535.964844 570.414062 C 535.921875 566.78125 535.757812 565.734375 535.4375 567.058594 C 534.105469 572.570312 531.339844 574.40625 524.359375 574.410156 L 519.398438 574.414062 L 519.398438 516.277344 L 521.800781 516.027344 C 523.117188 515.890625 520.457031 515.765625 515.882812 515.753906 C 511.308594 515.742188 508.515625 515.910156 509.675781 516.125 M 546.746094 516.023438 L 548.824219 516.28125 L 548.824219 574.414062 L 546.90625 574.414062 C 545.851562 574.414062 544.988281 574.707031 544.988281 575.066406 C 544.988281 575.492188 549.761719 575.660156 558.902344 575.546875 L 572.8125 575.371094 L 572.921875 570.253906 C 573.023438 565.558594 572.96875 565.320312 572.277344 567.375 C 570.335938 573.132812 568.347656 574.414062 561.332031 574.414062 L 556.503906 574.414062 L 556.503906 544.347656 L 558.660156 544.347656 C 562.894531 544.347656 564.90625 545.101562 566.160156 547.160156 L 567.371094 549.144531 L 567.355469 544.347656 C 567.339844 540.515625 567.195312 539.808594 566.636719 540.828125 C 565.402344 543.085938 564.015625 543.707031 560.21875 543.707031 L 556.503906 543.707031 L 556.503906 516.203125 L 560.039062 516.203125 C 565.847656 516.203125 569.933594 518.835938 569.933594 522.578125 C 569.933594 523.292969 570.222656 523.878906 570.574219 523.878906 C 570.9375 523.878906 571.214844 522.066406 571.214844 519.71875 L 571.214844 515.5625 L 557.941406 515.664062 C 550.640625 515.722656 545.605469 515.882812 546.746094 516.023438 M 583.847656 516.023438 L 585.925781 516.28125 L 585.925781 574.414062 L 584.007812 574.414062 C 582.953125 574.414062 582.089844 574.699219 582.089844 575.054688 C 582.089844 575.417969 584.007812 575.691406 586.566406 575.691406 C 589.125 575.691406 591.046875 575.417969 591.046875 575.054688 C 591.046875 574.699219 590.179688 574.414062 589.125 574.414062 L 587.207031 574.414062 L 587.207031 546.90625 C 587.207031 531.777344 587.316406 519.398438 587.445312 519.398438 C 587.578125 519.398438 593.40625 531.917969 600.398438 547.21875 C 607.394531 562.519531 613.332031 575.042969 613.59375 575.046875 C 613.859375 575.050781 614.074219 561.828125 614.074219 545.664062 L 614.074219 516.277344 L 616.472656 516.027344 C 617.792969 515.890625 616.625 515.730469 613.875 515.667969 C 610.5 515.597656 609.015625 515.78125 609.300781 516.238281 C 609.53125 516.613281 610.484375 516.828125 611.417969 516.71875 L 613.113281 516.523438 L 613.347656 556.820312 L 610.765625 551.382812 C 609.34375 548.394531 605.871094 540.910156 603.050781 534.753906 C 600.226562 528.597656 597.085938 521.757812 596.074219 519.558594 L 594.230469 515.5625 L 588 515.664062 C 584.574219 515.722656 582.707031 515.882812 583.847656 516.023438 M 627.507812 518.707031 C 627.507812 520.4375 627.332031 522.308594 627.117188 522.867188 C 626.269531 525.082031 627.894531 523.699219 628.871094 521.375 C 630.386719 517.769531 632.660156 516.523438 637.714844 516.523438 L 641.902344 516.523438 L 641.902344 574.09375 L 639.820312 574.292969 C 638.679688 574.40625 637.742188 574.765625 637.742188 575.09375 C 637.742188 575.910156 652.90625 575.871094 653.414062 575.054688 C 653.648438 574.671875 652.886719 574.414062 651.535156 574.414062 L 649.257812 574.414062 L 649.257812 516.058594 L 653.808594 516.3125 C 658.097656 516.558594 658.480469 516.707031 660.523438 518.9375 C 661.714844 520.234375 662.691406 521.878906 662.691406 522.589844 C 662.691406 523.296875 662.976562 523.878906 663.328125 523.878906 C 663.691406 523.878906 663.96875 522.066406 663.96875 519.71875 L 663.96875 515.5625 L 627.507812 515.5625 Z M 169.640625 596.160156 C 159.746094 598.257812 149.9375 608.257812 147.8125 618.421875 C 146.828125 623.113281 146.832031 697.152344 147.8125 701.839844 C 148.914062 707.09375 152.554688 713.457031 156.554688 717.113281 C 169.011719 728.5 186.84375 727.742188 198.378906 715.332031 C 203.324219 710.011719 205.953125 703.355469 205.953125 696.15625 L 205.953125 692.117188 L 190.15625 692.117188 L 189.734375 699.992188 C 188.871094 716.183594 184.890625 723.460938 176.898438 723.460938 C 170.058594 723.460938 166.074219 718.371094 164.386719 707.46875 C 163.511719 701.804688 163.527344 618.304688 164.40625 612.792969 C 165.292969 607.234375 168.140625 601.234375 170.792969 599.347656 C 173.675781 597.292969 178.644531 596.945312 181.644531 598.589844 C 186.464844 601.230469 189.027344 608.203125 189.726562 620.578125 C 189.960938 624.765625 190.417969 628.351562 190.734375 628.550781 C 191.054688 628.746094 194.609375 628.703125 198.632812 628.449219 L 205.953125 627.992188 L 205.953125 617.195312 C 205.953125 610.421875 205.714844 606.398438 205.3125 606.398438 C 204.960938 606.398438 204.667969 607.1875 204.664062 608.15625 C 204.660156 609.125 204.359375 610.347656 203.996094 610.875 C 203.4375 611.691406 203.171875 611.597656 202.246094 610.253906 C 197.496094 603.363281 193.257812 599.824219 186.828125 597.382812 C 182.78125 595.84375 174.058594 595.226562 169.640625 596.160156 M 223.226562 596.164062 C 223.226562 596.527344 225.144531 596.800781 227.703125 596.800781 L 232.179688 596.800781 L 232.179688 724.101562 L 227.703125 724.101562 C 225.144531 724.101562 223.226562 724.375 223.226562 724.738281 C 223.226562 725.152344 229.410156 725.378906 240.496094 725.378906 C 251.585938 725.378906 257.769531 725.152344 257.769531 724.738281 C 257.769531 724.375 255.847656 724.101562 253.289062 724.101562 L 248.8125 724.101562 L 248.8125 661.410156 L 276.332031 661.410156 L 276.164062 692.59375 L 276 723.78125 L 271.363281 723.96875 C 268.8125 724.070312 266.722656 724.429688 266.722656 724.769531 C 266.722656 725.140625 273.433594 725.378906 283.996094 725.378906 C 295.082031 725.378906 301.265625 725.152344 301.265625 724.738281 C 301.265625 724.375 299.347656 724.101562 296.789062 724.101562 L 292.3125 724.101562 L 292.3125 596.800781 L 296.789062 596.800781 C 299.347656 596.800781 301.265625 596.527344 301.265625 596.164062 C 301.265625 595.753906 295.082031 595.523438 283.996094 595.523438 C 273.433594 595.523438 266.722656 595.761719 266.722656 596.132812 C 266.722656 596.472656 268.8125 596.832031 271.363281 596.933594 L 276 597.121094 L 276.171875 627.746094 C 276.285156 647.453125 276.117188 658.644531 275.707031 659.136719 C 275.246094 659.691406 271.882812 659.878906 263.699219 659.808594 C 257.445312 659.753906 251.539062 659.660156 250.570312 659.601562 L 248.8125 659.492188 L 248.8125 596.800781 L 253.289062 596.800781 C 255.847656 596.800781 257.769531 596.527344 257.769531 596.164062 C 257.769531 595.753906 251.585938 595.523438 240.496094 595.523438 C 229.410156 595.523438 223.226562 595.753906 223.226562 596.164062 M 324.101562 595.933594 C 323.101562 596.929688 324.695312 597.441406 328.8125 597.441406 L 333.25 597.441406 L 333.25 648.472656 C 333.25 696.085938 333.328125 699.785156 334.429688 703.75 C 335.890625 709.015625 338.753906 713.5625 343.113281 717.535156 C 347.367188 721.410156 351.160156 723.28125 357.316406 724.539062 C 372.476562 727.628906 387.472656 717.757812 391.117188 702.292969 C 391.933594 698.820312 392.085938 690.488281 392.09375 647.816406 L 392.101562 597.441406 L 396.582031 597.441406 C 400.132812 597.441406 401.058594 597.242188 401.058594 596.484375 C 401.058594 595.671875 399.53125 595.523438 391.144531 595.523438 C 382.757812 595.523438 381.226562 595.671875 381.226562 596.484375 C 381.226562 597.246094 382.152344 597.441406 385.722656 597.441406 L 390.21875 597.441406 L 390.042969 650.054688 L 389.863281 702.671875 L 387.863281 706.828125 C 384.253906 714.339844 377.925781 719.875 370.203125 722.277344 C 357.945312 726.09375 351.554688 720.5625 349.882812 704.695312 C 349.542969 701.453125 349.261719 676.191406 349.253906 648.164062 L 349.242188 597.5 L 353.828125 597.308594 C 356.789062 597.1875 358.511719 596.839844 358.679688 596.324219 C 358.886719 595.695312 355.214844 595.523438 341.726562 595.523438 C 332.257812 595.523438 324.324219 595.707031 324.101562 595.933594 M 417.207031 596.324219 C 417.378906 596.839844 419.101562 597.1875 422.058594 597.308594 L 426.644531 597.5 L 426.644531 723.460938 L 421.792969 723.460938 C 418.199219 723.460938 417.011719 723.667969 417.210938 724.261719 C 417.414062 724.875 421.476562 725.058594 434.640625 725.058594 C 447.804688 725.058594 451.867188 724.875 452.074219 724.261719 C 452.269531 723.667969 451.085938 723.460938 447.488281 723.460938 L 442.636719 723.460938 L 442.636719 678.042969 L 447.792969 678.042969 L 458.808594 700.273438 C 466.9375 716.671875 470.296875 722.835938 471.628906 723.78125 C 473.25 724.929688 474.460938 725.058594 483.617188 725.058594 C 489.222656 725.058594 493.878906 724.816406 493.96875 724.519531 C 494.058594 724.222656 493.027344 723.601562 491.671875 723.136719 C 488.375 722.003906 486.292969 719.949219 484.539062 716.105469 C 483.046875 712.835938 466.816406 679.550781 465.664062 677.402344 C 465.121094 676.382812 465.542969 675.921875 468.664062 674.136719 C 475.957031 669.964844 481.78125 662.328125 483.988281 654.054688 C 485.214844 649.453125 485.175781 623.171875 483.9375 619.089844 C 480.441406 607.570312 470.984375 598.523438 460.039062 596.234375 C 455.003906 595.179688 416.855469 595.257812 417.207031 596.324219 M 531.148438 596.148438 C 523.082031 597.867188 515.125 604.441406 511.222656 612.617188 L 508.84375 617.59375 L 508.84375 702.671875 L 511.21875 707.636719 C 515.746094 717.125 523.683594 723.148438 533.90625 724.855469 C 537.8125 725.507812 539.234375 725.464844 543.390625 724.5625 C 549.882812 723.152344 553.402344 721.332031 558.136719 716.921875 C 564.121094 711.347656 567.328125 704.003906 567.363281 695.792969 L 567.375 692.117188 L 551.578125 692.117188 L 551.164062 699.367188 C 550.636719 708.621094 549.851562 712.714844 547.804688 716.917969 C 545.628906 721.378906 542.597656 723.460938 538.28125 723.457031 C 532.480469 723.453125 528.785156 719.804688 526.621094 711.945312 C 525.570312 708.125 525.476562 703.949219 525.476562 660.453125 C 525.476562 617.160156 525.574219 612.757812 526.609375 608.957031 C 528.796875 600.921875 532.890625 597.164062 538.96875 597.609375 C 543.199219 597.921875 545.746094 599.765625 547.816406 604.015625 C 549.828125 608.132812 550.613281 612.175781 551.128906 621 C 551.347656 624.753906 551.753906 628.074219 552.035156 628.375 C 552.3125 628.675781 555.878906 628.710938 559.960938 628.457031 L 567.375 627.992188 L 567.375 617.140625 C 567.375 608.746094 567.195312 606.351562 566.578125 606.554688 C 566.136719 606.699219 565.6875 607.875 565.578125 609.164062 C 565.46875 610.457031 565.15625 611.515625 564.886719 611.515625 C 564.613281 611.515625 563.296875 609.929688 561.960938 607.988281 C 559.03125 603.730469 553.335938 599.3125 548.339844 597.414062 C 544.230469 595.855469 535.53125 595.210938 531.148438 596.148438 M 584.648438 596.164062 C 584.648438 596.527344 586.566406 596.800781 589.125 596.800781 L 593.605469 596.800781 L 593.605469 724.101562 L 589.125 724.101562 C 586.566406 724.101562 584.648438 724.375 584.648438 724.738281 C 584.648438 725.152344 590.832031 725.378906 601.917969 725.378906 C 613.007812 725.378906 619.191406 725.152344 619.191406 724.738281 C 619.191406 724.375 617.273438 724.101562 614.714844 724.101562 L 610.234375 724.101562 L 610.234375 661.410156 L 637.753906 661.410156 L 637.589844 692.59375 L 637.421875 723.78125 L 632.785156 723.96875 C 630.234375 724.070312 628.148438 724.429688 628.148438 724.769531 C 628.148438 725.140625 634.859375 725.378906 645.417969 725.378906 C 656.507812 725.378906 662.691406 725.152344 662.691406 724.738281 C 662.691406 724.375 660.769531 724.101562 658.210938 724.101562 L 653.734375 724.101562 L 653.734375 596.800781 L 658.210938 596.800781 C 660.769531 596.800781 662.691406 596.527344 662.691406 596.164062 C 662.691406 595.753906 656.507812 595.523438 645.417969 595.523438 C 634.859375 595.523438 628.148438 595.761719 628.148438 596.132812 C 628.148438 596.472656 630.234375 596.832031 632.785156 596.933594 L 637.421875 597.121094 L 637.589844 627.789062 C 637.679688 644.65625 637.535156 658.667969 637.269531 658.929688 C 636.617188 659.570312 614.046875 660.421875 611.917969 659.890625 L 610.234375 659.46875 L 610.234375 596.800781 L 614.714844 596.800781 C 617.273438 596.800781 619.191406 596.527344 619.191406 596.164062 C 619.191406 595.753906 613.007812 595.523438 601.917969 595.523438 C 590.832031 595.523438 584.648438 595.753906 584.648438 596.164062 M 442.636719 636.78125 L 442.636719 676.125 L 449.375 676.125 C 453.578125 676.125 456.886719 675.800781 458.171875 675.261719 C 461.421875 673.898438 464.691406 669.757812 466.382812 664.855469 C 467.878906 660.527344 467.90625 660.042969 467.90625 636.78125 C 467.90625 616.050781 467.765625 612.6875 466.792969 609.664062 C 465.070312 604.328125 462.742188 600.855469 459.675781 599.058594 C 457.171875 597.589844 456.261719 597.441406 449.777344 597.441406 L 442.636719 597.441406 Z M 442.636719 636.78125 " fill-opacity="1" fill-rule="evenodd"/></svg>